<svg width="18" height="18" viewBox="0 0 18 18" fill="none" xmlns="http://www.w3.org/2000/svg">
<rect x="0.5" y="0.5" width="17" height="17" rx="8.5" stroke="white"/>
<g clip-path="url(#clip0_40_12)">
<path d="M8.04975 12.5998C7.93915 12.5998 7.83292 12.542 7.75447 12.4386L5.52241 9.49778C5.35927 9.28292 5.35927 8.93445 5.52241 8.71948C5.68546 8.50451 5.95001 8.50439 6.11306 8.71948L8.0326 11.2484L11.8708 5.58368C12.0244 5.35717 12.2884 5.33716 12.4605 5.53965C12.6326 5.74214 12.6476 6.09003 12.494 6.31677L8.36129 12.4159C8.28482 12.5288 8.17635 12.5952 8.06155 12.5996C8.05762 12.5997 8.05368 12.5998 8.04975 12.5998Z" fill="white"/>
</g>
<defs>
<clipPath id="clip0_40_12">
<rect width="7.2" height="7.2" fill="white" transform="translate(5.39999 5.4)"/>
</clipPath>
</defs>
</svg>
