<svg width="20" height="20" viewBox="0 0 20 20" fill="none" xmlns="http://www.w3.org/2000/svg">
<path d="M10 18.75C14.8325 18.75 18.75 14.8325 18.75 10C18.75 5.16751 14.8325 1.25 10 1.25C5.16751 1.25 1.25 5.16751 1.25 10C1.25 14.8325 5.16751 18.75 10 18.75Z" stroke="#E4E4E4" stroke-width="2" stroke-miterlimit="10" stroke-linecap="round" stroke-linejoin="round"/>
<path d="M10 11.25C11.7259 11.25 13.125 9.85089 13.125 8.125C13.125 6.39911 11.7259 5 10 5C8.27411 5 6.875 6.39911 6.875 8.125C6.875 9.85089 8.27411 11.25 10 11.25Z" stroke="#E4E4E4" stroke-width="2" stroke-miterlimit="10" stroke-linecap="round" stroke-linejoin="round"/>
<path d="M3.375 15.6875C4.5 13.125 7 11.3125 10 11.3125C13 11.3125 15.5625 13.125 16.625 15.6875" stroke="#E4E4E4" stroke-width="2" stroke-miterlimit="10" stroke-linecap="round" stroke-linejoin="round"/>
</svg>
